<svg xmlns="http://www.w3.org/2000/svg" xml:space="preserve" fill="#fdfdfd" stroke="#ffffff" stroke-width="1.5" id="Layer_1" width="250%" x="0" y="0" viewBox="0 0 288 320"><path d="M61.34 310.47c9.022-5.837 15.282-13.877 21.211-22.132 13.528-18.832 25.052-38.889 36.303-60.127-39.163-.024-76.564-9.905-114.727-13.949-1.821-.84-2.02-2.91-.797-4.596 1.062-1.464 3.043-.815 4.69-.534 33.611 5.736 67.054 12.69 101.25 14.214 3.466.154 6.974-.229 10.44-.587 3.014-.312 3.737-3.114 4.81-5.257 8.727-17.428 17.537-34.808 27.746-51.436 6.814-11.1 14.148-21.802 23.651-30.835 3.273-3.11 6.728-5.991 11.02-7.623 1.532-.582 3.223-1.454 4.616.154 1.212 1.4.22 2.856-.319 4.21-8.612 21.656-12.544 44.393-15.97 68.854 6.173-5.261 10.511-10.534 15.149-15.495 8.431-9.02 11.97-20.614 16.667-31.6 6.498-15.198 13.985-29.864 23.533-43.403 3.005-4.26 3.89-8.247 2.553-13.828-4.223-17.627-7.5-35.5-6.563-53.811.093-1.824.206-3.667.556-5.453.78-3.979 2.206-7.498 7.152-7.516 4.36-.016 8.148 3.633 8.888 8.608 1.131 7.61 1.283 15.297.728 22.931-.867 11.929-2.19 23.824-3.374 36.319 1.135-1.848 2.04-3.318 2.943-4.79.98-1.597 2.056-3.286 4.174-3.072 2.363.238 3.184 2.28 3.669 4.234 2.143 8.644 3.313 17.596 1.455 26.212-1.88 8.718-.108 15.838 3.63 23.733 7.933 16.754 6.66 34.062-1.033 50.652-3.24 6.985-10.774 7.522-16.13 1.99-5.957-6.155-11.376-20.621-5.998-32.054 4.313-9.167 9.246-18.089 12.574-27.727 1.06-3.067.926-5.632-.742-8.519-2.466-4.266-4.414-8.831-6.717-13.544-2.916 2.77-3.654 6.276-5.26 9.287-7.593 14.244-15.32 28.398-24.047 42.01-7.101 11.076-9.853 23.956-13.693 36.333-6.811 21.952-12.063 44.316-17.172 66.712-.222.974-.478 1.94-.724 2.909-.488 1.916-1.48 3.496-3.603 3.595-2.325.108-2.997-1.72-3.432-3.594-1.652-7.13-3.275-14.237-3.815-21.599-.865-11.784-1.112-23.565-.468-36.076-12.946 6.598-26.03 10.698-39.626 13.196-2.179.4-2.598 2.39-3.426 3.968-11.384 21.7-23.319 43.068-38.014 62.757-4.884 6.543-9.98 12.92-16.457 18.025-2.637 2.079-5.46 3.842-8.748 4.666-4.113 1.03-7.623-.126-10.275-3.412-1.206-1.493-2.963-3.39-.925-5.212 1.936-1.73 3.25.288 4.49 1.6 2.386 2.522 5.073 1.953 8.158.612m84.276-92.31c5.245-2.09 10.63-3.793 15.622-6.548 4.041-2.23 5.894-5.408 6.352-9.927 1.802-17.761 5.515-35.134 10.718-52.218 1.09-3.578 2.986-7.089 2.833-12.308-24.431 24.793-37.503 55.165-52.798 84.154l.779 1.201a1822 1822 0 0 0 16.494-4.355m92.125-28.495c2.395 3.382 5.224 6.53 9.742 5.73 4.42-.784 6.275-4.677 7.706-8.487 1.948-5.185 2.371-10.72 3.19-16.136 1.855-12.26-1.608-23.212-8.911-33.855-3.01 10.787-8.63 19.723-12.818 29.308-3.476 7.957-3.923 15.333 1.09 23.44m3.156-132.184c-.063-5.974-.028-11.953-.225-17.923-.122-3.674-2.994-5.213-5.97-5.697-2.97-.483-3.58 2.412-4.358 4.549-.858 2.353-1.139 4.819-1.188 7.339-.144 7.312.292 14.577 1.203 21.835 1.228 9.791 2.837 19.496 5.903 29.055 2.946-12.582 4.255-25.315 4.635-39.158m-56.065 160.987 8.91-29.887c-6.795 6.042-11.392 12.912-18.033 17.668-1.12.802-1.275 2.244-1.4 3.612-1.04 11.416-2.249 22.83-1.872 34.31.163 4.929.89 9.839 1.36 14.757l.672-.133c3.388-13.179 6.776-26.358 10.363-40.327m65.916-107.12c-.075-5.629-.018-11.282-2.36-16.975-9.696 10-9.647 20.815-.094 32.672 1.753-4.956 1.905-9.9 2.454-15.696"/><path d="M219.762 227.854c-.503-.873-.954-1.485-.93-2.078.116-2.83 1.103-5.482 4.183-5.79 2.714-.271 3.036 2.383 2.747 4.256-.47 3.046-1.932 5.385-6 3.612"/></svg>